<?xml version="1.0" standalone="no"?>
<!DOCTYPE svg PUBLIC "-//W3C//DTD SVG 20010904//EN"
 "http://www.w3.org/TR/2001/REC-SVG-20010904/DTD/svg10.dtd">
<svg version="1.0" xmlns="http://www.w3.org/2000/svg"
 width="75.000000pt" height="75.000000pt" viewBox="0 0 75.000000 75.000000"
 preserveAspectRatio="xMidYMid meet">

<g transform="translate(0.000000,75.000000) scale(0.100000,-0.100000)"
fill="#000000" stroke="none">
<path d="M117 669 c-34 -20 -48 -65 -46 -154 2 -90 -6 -111 -44 -117 -29 -4
-28 -29 1 -44 42 -21 45 -31 46 -133 1 -120 13 -140 91 -149 42 -4 47 -3 44
13 -2 11 -17 22 -34 27 -47 12 -55 32 -55 130 0 81 -2 91 -25 114 -29 29 -30
34 -10 34 25 0 35 36 35 122 0 98 14 128 61 128 24 0 30 4 27 18 -4 20 -63 28
-91 11z"/>
<path d="M532 663 c2 -11 14 -19 30 -21 47 -6 62 -35 61 -115 -2 -86 11 -134
38 -142 18 -6 17 -8 -10 -34 -29 -27 -30 -31 -28 -114 2 -97 -13 -127 -65
-127 -31 0 -39 -24 -12 -34 33 -13 65 -5 96 23 l33 29 -3 95 c-2 101 4 116 56
132 27 8 24 25 -5 40 -51 26 -53 33 -52 129 2 123 -20 156 -107 156 -28 0 -35
-4 -32 -17z"/>
<path d="M192 443 c-11 -4 -42 -54 -42 -68 0 -14 24 -2 42 20 11 14 30 25 43
25 15 0 31 -10 41 -25 9 -14 22 -25 30 -25 18 0 1 48 -24 66 -17 13 -65 17
-90 7z"/>
<path d="M466 429 c-27 -21 -36 -59 -13 -59 7 0 17 10 22 23 8 17 18 22 45 22
27 0 37 -5 45 -22 5 -13 15 -23 22 -23 21 0 15 29 -12 55 -30 31 -73 32 -109
4z"/>
<path d="M305 253 c11 -44 34 -63 76 -63 29 0 42 6 58 26 27 34 27 64 1 64
-13 0 -20 -7 -20 -19 0 -10 -7 -24 -15 -31 -21 -18 -65 2 -65 30 0 14 -7 20
-21 20 -18 0 -20 -4 -14 -27z"/>
</g>
</svg>
